<svg version="1.1" id="Layer_1" xmlns="http://www.w3.org/2000/svg" xmlns:xlink="http://www.w3.org/1999/xlink" x="0px" y="0px"
	 width="100%" viewBox="0 0 225 225" enable-background="new 0 0 225 225" xml:space="preserve">
<path fill="#FEFEFE" opacity="1.000000" stroke="none" 
	d="
M126.000000,226.000000 
	C84.000000,226.000000 42.500004,226.000000 1.000005,226.000000 
	C1.000004,151.000000 1.000004,76.000015 1.000002,1.000016 
	C75.999992,1.000010 150.999985,1.000010 225.999969,1.000005 
	C225.999985,75.999985 225.999985,150.999969 226.000000,225.999969 
	C192.833328,226.000000 159.666672,226.000000 126.000000,226.000000 
M180.001862,128.228378 
	C179.569855,127.124275 179.137848,126.020164 179.165283,124.293427 
	C185.210526,124.519180 185.379990,119.252846 186.766098,115.601631 
	C187.834442,112.787468 189.085815,108.045181 187.722458,106.667786 
	C183.017181,101.914116 184.968719,96.150124 184.494263,91.080208 
	C183.977921,85.562798 183.763382,80.494041 179.825089,76.600883 
	C177.140198,77.075462 174.713104,77.504478 172.448471,77.904778 
	C171.256210,75.291504 170.303558,73.203415 169.890656,72.298416 
	C165.692886,70.770164 162.526260,69.617310 160.238556,68.784439 
	C153.329239,72.887672 146.215500,73.034203 138.636139,72.640152 
	C138.471191,72.574524 138.306259,72.508904 138.153305,71.718376 
	C136.841415,68.179512 135.994812,64.974892 137.586945,60.901539 
	C139.700012,55.495411 135.107620,47.591480 129.514862,45.710350 
	C122.485855,43.346142 115.362762,41.054993 107.361664,43.908569 
	C106.901207,43.647797 106.440742,43.387028 106.265030,42.327396 
	C104.681694,38.851532 103.098358,35.375668 101.321915,31.475878 
	C98.945885,32.271847 96.294449,34.319660 94.573959,30.872427 
	C89.726440,33.186470 86.648102,23.306305 81.317635,28.949154 
	C75.837502,25.680391 70.492126,28.716253 65.275368,29.720564 
	C62.666561,30.222797 60.498749,33.015709 57.489853,35.248737 
	C56.572243,34.991947 49.602661,39.595600 49.077934,41.713284 
	C48.582176,43.714035 47.759148,45.633698 46.841778,48.275162 
	C47.003208,49.310654 47.456509,51.363144 47.612755,53.437996 
	C47.806362,56.008984 47.525909,58.630737 47.884892,61.169090 
	C48.138866,62.964954 49.310619,64.613495 49.724724,66.408081 
	C50.465588,69.618721 50.052124,73.452812 51.684677,76.039536 
	C59.239506,88.009842 58.622993,99.675896 51.773918,111.550858 
	C50.703598,113.406578 49.981308,115.472267 49.185684,117.475662 
	C44.515423,129.235489 39.695538,140.965637 40.166088,154.396912 
	C38.838833,154.621445 37.511578,154.845993 36.184322,155.070526 
	C36.228291,155.429291 36.272259,155.788071 36.316227,156.146835 
	C62.165974,156.146835 88.015724,156.146835 113.933510,157.063446 
	C113.933510,165.976166 113.933510,174.888901 113.933510,183.760040 
	C118.638824,183.760040 122.737747,183.760040 127.258118,183.760040 
	C127.258118,177.836838 127.258118,172.088394 127.258118,166.390289 
	C134.217712,165.729477 134.397385,165.830093 137.167618,171.670837 
	C137.948456,173.317123 138.974655,174.894424 139.462997,176.623474 
	C141.156403,182.619247 144.913071,185.531860 151.041824,183.862137 
	C158.383438,181.862000 165.505325,183.889267 172.732941,184.135040 
	C176.831299,184.274368 181.079025,183.893494 185.054718,182.914932 
	C192.086761,181.184143 195.716110,176.104034 196.047409,168.727951 
	C196.403137,160.808060 193.624084,155.904922 186.969162,153.208221 
	C184.071747,152.034149 181.013275,151.257584 178.085083,149.509598 
	C177.408051,147.119110 176.731033,144.728622 176.932892,142.130783 
	C181.819199,142.423721 186.705521,142.716675 192.015976,143.035049 
	C192.713135,139.974060 193.502213,136.509506 194.449554,132.350021 
	C189.311493,131.446655 184.658142,130.628525 180.007889,129.404709 
	C180.007889,129.404709 179.998474,128.999115 180.001862,128.228378 
M87.581024,175.110306 
	C86.038803,172.184204 83.655670,171.903641 79.891594,174.526855 
	C81.591278,175.119125 83.026268,175.619171 84.405869,176.099915 
	C84.405869,178.035614 84.405869,179.769135 84.405869,181.589951 
	C79.907684,182.389709 75.761490,182.545731 74.643478,177.303543 
	C74.047806,174.510513 74.119652,171.242737 74.983299,168.538315 
	C76.936974,162.420624 83.304314,166.503143 87.870430,164.072678 
	C82.855453,161.120941 78.580460,161.468750 74.723259,164.067551 
	C70.174164,167.132507 70.503967,172.111679 71.095100,176.765488 
	C71.873901,182.896698 75.343567,184.690033 83.310524,184.406250 
	C89.780823,184.175781 86.963631,179.514496 87.576927,176.447525 
	C87.608932,176.287476 87.581108,176.115448 87.581024,175.110306 
M106.820419,180.150269 
	C106.820419,177.849167 106.820419,175.548080 106.820419,172.795456 
	C104.181152,172.912369 101.947174,173.011337 99.713203,173.110306 
	C99.658745,173.608246 99.604286,174.106186 99.549835,174.604126 
	C100.928116,175.073334 102.306404,175.542542 103.533859,175.960403 
	C103.533859,177.943832 103.533859,179.856506 103.533859,181.727707 
	C98.729942,182.372025 94.447334,182.275681 93.752350,176.569702 
	C93.402596,173.698120 92.996674,169.228745 94.549271,168.068283 
	C97.662216,165.741577 102.103378,165.191940 105.819817,163.966919 
	C101.863281,160.992264 95.932190,161.493515 92.530563,165.321030 
	C89.102318,169.178528 89.175484,178.353073 92.664032,182.057205 
	C94.892265,184.423126 103.865143,185.365356 106.235214,183.342499 
	C106.729073,182.920975 106.640358,181.816864 106.820419,180.150269 
M51.029701,177.690140 
	C50.402180,173.303406 46.924168,172.769608 43.526741,171.654114 
	C41.941208,171.133530 40.881001,169.012985 39.582695,167.617615 
	C41.154701,166.726166 42.634598,165.467529 44.323921,165.043732 
	C46.109383,164.595840 48.094360,164.943253 49.992184,164.943253 
	C50.031666,164.470688 50.071148,163.998123 50.110630,163.525558 
	C49.445538,163.256165 48.798519,162.923569 48.112503,162.727356 
	C42.539577,161.133530 37.929527,162.733994 36.712986,166.658569 
	C35.335369,171.102768 36.791103,172.562271 43.834225,175.124985 
	C45.426918,175.704498 46.443413,177.867599 47.725140,179.301758 
	C46.186329,180.188751 44.736835,181.524307 43.086823,181.852859 
	C40.863380,182.295624 38.485489,181.962753 35.721962,181.962753 
	C41.007603,186.950012 49.465668,184.711517 51.029701,177.690140 
M69.025101,170.242691 
	C68.693398,163.064804 65.332191,161.311493 53.880268,162.651749 
	C53.880268,169.179810 53.836185,175.773193 53.949093,182.363907 
	C53.960270,183.016357 54.930931,183.652390 55.456264,184.296036 
	C55.998566,183.667847 56.941334,183.079437 57.008450,182.404022 
	C57.213959,180.336014 57.083172,178.234573 57.083172,176.186493 
	C62.068859,175.785004 66.974449,176.629303 69.025101,170.242691 
z"/>
<path fill="#8FA225" opacity="1.000000" stroke="none" 
	d="
M40.845490,154.053986 
	C39.695538,140.965637 44.515423,129.235489 49.185684,117.475662 
	C49.981308,115.472267 50.703598,113.406578 51.773918,111.550858 
	C58.622993,99.675896 59.239506,88.009842 51.684677,76.039536 
	C50.052124,73.452812 50.465588,69.618721 49.724724,66.408081 
	C49.310619,64.613495 48.138866,62.964954 47.884892,61.169090 
	C47.525909,58.630737 47.806362,56.008984 47.612755,53.437996 
	C47.456509,51.363144 47.003208,49.310654 46.841778,48.275162 
	C47.759148,45.633698 48.582176,43.714035 49.077934,41.713284 
	C49.602661,39.595600 56.572243,34.991947 57.489853,35.248737 
	C60.498749,33.015709 62.666561,30.222797 65.275368,29.720564 
	C70.492126,28.716253 75.837502,25.680391 81.317635,28.949154 
	C86.648102,23.306305 89.726440,33.186470 94.573959,30.872427 
	C96.294449,34.319660 98.945885,32.271847 101.321915,31.475878 
	C103.098358,35.375668 104.681694,38.851532 105.807144,42.861576 
	C97.656265,42.793427 92.594833,45.452854 94.283226,49.712975 
	C89.860840,48.910244 87.687439,50.563957 88.053505,55.123127 
	C88.136185,56.152859 87.432510,57.327347 86.874916,58.313068 
	C84.116844,63.188789 83.617569,68.499352 83.981140,73.906441 
	C84.162247,76.599968 84.379601,79.496330 85.490738,81.875954 
	C87.353134,85.864464 90.181610,89.395264 92.137550,93.349197 
	C93.289665,95.678207 93.543648,98.451500 93.783035,101.120789 
	C91.333122,101.645447 88.907303,101.508713 87.339432,102.602165 
	C80.932610,107.070404 80.220795,115.754753 85.447334,121.447861 
	C86.104202,122.163376 86.592590,123.033562 87.095047,124.201302 
	C83.283905,134.381226 79.536751,144.191910 75.334557,154.025391 
	C63.534840,154.050125 52.190166,154.052048 40.845490,154.053986 
z"/>
<path fill="#040303" opacity="1.000000" stroke="none" 
	d="
M180.004807,129.810394 
	C184.658142,130.628525 189.311493,131.446655 194.449554,132.350021 
	C193.502213,136.509506 192.713135,139.974060 192.015976,143.035049 
	C186.705521,142.716675 181.819199,142.423721 176.129486,142.191696 
	C173.919846,143.352051 172.513596,144.451508 171.107361,145.550964 
	C172.453613,146.954208 173.692383,148.491028 175.195038,149.699860 
	C175.866089,150.239716 177.067337,150.120544 178.027954,150.300476 
	C181.013275,151.257584 184.071747,152.034149 186.969162,153.208221 
	C193.624084,155.904922 196.403137,160.808060 196.047409,168.727951 
	C195.716110,176.104034 192.086761,181.184143 185.054718,182.914932 
	C181.079025,183.893494 176.831299,184.274368 172.732941,184.135040 
	C165.505325,183.889267 158.383438,181.862000 151.041824,183.862137 
	C144.913071,185.531860 141.156403,182.619247 139.462997,176.623474 
	C138.974655,174.894424 137.948456,173.317123 137.167618,171.670837 
	C134.397385,165.830093 134.217712,165.729477 127.258118,166.390289 
	C127.258118,172.088394 127.258118,177.836838 127.258118,183.760040 
	C122.737747,183.760040 118.638824,183.760040 113.933510,183.760040 
	C113.933510,174.888901 113.933510,165.976166 113.874283,156.260773 
	C113.727669,155.244995 113.640297,155.031891 113.674370,154.376923 
	C113.795822,146.242310 113.795822,138.549591 113.795822,130.702957 
	C118.850525,130.452408 123.103653,130.241592 127.564423,130.114960 
	C128.181335,130.240234 128.590607,130.281326 129.443787,130.457748 
	C132.032059,130.640991 134.179016,130.637466 136.320358,130.745178 
	C150.081726,131.437424 156.287476,139.658142 153.399994,153.212448 
	C153.232773,153.997467 153.857330,154.951141 153.769379,155.926346 
	C151.335098,158.308472 149.244858,160.590591 147.124619,162.905457 
	C150.144440,168.446945 153.159515,173.979721 156.470932,180.056290 
	C157.470673,176.331467 158.231796,173.495651 158.827072,171.277786 
	C165.494019,171.608856 171.579773,172.090118 177.664398,172.076202 
	C179.034561,172.073074 181.532745,170.324188 181.517960,169.411240 
	C181.492264,167.825226 180.214157,165.238266 178.934692,164.862213 
	C171.528320,162.685226 164.068832,160.790726 157.823944,155.439636 
	C157.739670,153.219269 157.810425,151.408463 157.612152,149.627594 
	C156.625320,140.764145 159.561615,135.597565 167.591675,131.889618 
	C169.741180,130.897064 171.710770,129.514877 173.768402,128.731567 
	C175.850830,129.371201 177.927826,129.590790 180.004807,129.810394 
M135.136826,142.913452 
	C132.669815,142.481720 130.202789,142.049988 127.445923,141.567520 
	C127.445923,146.395050 127.445923,150.292618 127.445923,154.459091 
	C130.330917,154.459091 133.175308,155.113327 135.461533,154.264389 
	C137.509079,153.504059 140.433609,150.948654 140.292267,149.435501 
	C140.085968,147.227036 137.481873,145.242538 135.136826,142.913452 
z"/>
<path fill="#FBC660" opacity="1.000000" stroke="none" 
	d="
M173.762955,128.311554 
	C171.710770,129.514877 169.741180,130.897064 167.591675,131.889618 
	C159.561615,135.597565 156.625320,140.764145 157.612152,149.627594 
	C157.810425,151.408463 157.739670,153.219269 157.455780,155.516434 
	C156.116882,155.953171 155.115158,155.889755 154.113419,155.826324 
	C153.857330,154.951141 153.232773,153.997467 153.399994,153.212448 
	C156.287476,139.658142 150.081726,131.437424 136.320358,130.745178 
	C134.179016,130.637466 132.032059,130.640991 129.460876,130.069092 
	C128.958359,125.224258 128.581528,121.012169 124.908264,117.603973 
	C124.934349,116.124130 124.917976,115.046524 125.006264,113.575943 
	C124.740730,108.388641 128.181641,109.051323 131.123550,108.969124 
	C135.702713,108.841179 139.486359,108.526817 139.362061,101.976326 
	C139.292755,98.324158 141.091095,94.121536 143.312790,91.095871 
	C145.262207,88.441048 145.385208,86.895226 143.352875,84.804665 
	C140.133453,81.493004 137.932816,77.844086 139.053787,72.970886 
	C146.215500,73.034203 153.329239,72.887672 160.238556,68.784439 
	C162.526260,69.617310 165.692886,70.770164 169.890656,72.298416 
	C170.303558,73.203415 171.256210,75.291504 172.448471,77.904778 
	C174.713104,77.504478 177.140198,77.075462 179.825089,76.600883 
	C183.763382,80.494041 183.977921,85.562798 184.494263,91.080208 
	C184.968719,96.150124 183.017181,101.914116 187.722458,106.667786 
	C189.085815,108.045181 187.834442,112.787468 186.766098,115.601631 
	C185.379990,119.252846 185.210526,124.519180 178.826508,124.563354 
	C178.487747,124.833275 178.250031,124.808365 177.956619,124.724182 
	C177.459702,124.640747 177.256210,124.641495 177.118408,124.352028 
	C176.427673,123.719170 175.671234,123.376541 174.914795,123.033905 
	C174.636612,124.376038 174.358414,125.718163 174.022812,127.378662 
	C173.897919,127.901863 173.830444,128.106705 173.762955,128.311554 
z"/>
<path fill="#C1384E" opacity="1.000000" stroke="none" 
	d="
M124.901611,113.968925 
	C124.917976,115.046524 124.934349,116.124130 124.575500,117.648613 
	C123.973404,119.911797 123.156792,121.914902 123.658958,123.500290 
	C124.397972,125.833466 126.077736,127.868652 127.356773,130.030777 
	C123.103653,130.241592 118.850525,130.452408 113.795822,130.702957 
	C113.795822,138.549591 113.795822,146.242310 113.316910,154.390991 
	C111.626862,154.866302 110.415710,154.885635 109.100739,154.675201 
	C108.737022,154.238464 108.477135,154.031509 108.166428,153.469543 
	C104.359955,148.171692 100.424629,143.352890 96.901558,138.249496 
	C93.679848,133.582611 90.903999,128.607910 88.035767,123.443512 
	C92.195152,120.261551 91.822220,115.404915 93.336449,111.420860 
	C94.502823,108.352036 95.219002,105.112114 96.475311,101.800217 
	C99.121483,100.880775 102.540581,100.791954 103.514801,99.203575 
	C105.948433,95.235748 107.440636,90.645103 108.974625,86.188728 
	C109.829491,83.705246 110.012573,80.990517 110.498398,78.380005 
	C110.498886,76.288132 108.940720,74.331619 107.864342,72.138634 
	C105.176132,66.661728 104.477074,60.745808 107.075706,55.250340 
	C108.906662,51.378292 108.751266,47.887257 107.890007,44.087059 
	C115.362762,41.054993 122.485855,43.346142 129.514862,45.710350 
	C135.107620,47.591480 139.700012,55.495411 137.586945,60.901539 
	C135.994812,64.974892 136.841415,68.179512 138.024689,72.459412 
	C136.569122,75.399338 135.041824,77.503899 133.953568,79.815178 
	C130.939529,86.216507 127.630463,92.541191 125.359032,99.209877 
	C123.596863,104.383400 123.220963,110.029106 122.228874,115.464928 
	C122.626991,115.613434 123.025108,115.761940 123.423225,115.910454 
	C123.916023,115.263275 124.408821,114.616104 124.901611,113.968925 
z"/>
<path fill="#6E240C" opacity="1.000000" stroke="none" 
	d="
M107.625839,43.997814 
	C108.751266,47.887257 108.906662,51.378292 107.075706,55.250340 
	C104.477074,60.745808 105.176132,66.661728 107.864342,72.138634 
	C108.940720,74.331619 110.498886,76.288132 110.498398,78.380005 
	C110.012573,80.990517 109.829491,83.705246 108.974625,86.188728 
	C107.440636,90.645103 105.948433,95.235748 103.514801,99.203575 
	C102.540581,100.791954 99.121483,100.880775 96.260956,101.630531 
	C95.204964,101.414253 94.703262,101.219620 94.201569,101.024979 
	C93.543648,98.451500 93.289665,95.678207 92.137550,93.349197 
	C90.181610,89.395264 87.353134,85.864464 85.490738,81.875954 
	C84.379601,79.496330 84.162247,76.599968 83.981140,73.906441 
	C83.617569,68.499352 84.116844,63.188789 86.874916,58.313068 
	C87.432510,57.327347 88.136185,56.152859 88.053505,55.123127 
	C87.687439,50.563957 89.860840,48.910244 94.283226,49.712975 
	C92.594833,45.452854 97.656265,42.793427 105.664772,43.261005 
	C106.440742,43.387028 106.901207,43.647797 107.625839,43.997814 
z"/>
<path fill="#BF2E1E" opacity="1.000000" stroke="none" 
	d="
M125.006271,113.575951 
	C124.408821,114.616104 123.916023,115.263275 123.423225,115.910454 
	C123.025108,115.761940 122.626991,115.613434 122.228874,115.464928 
	C123.220963,110.029106 123.596863,104.383400 125.359032,99.209877 
	C127.630463,92.541191 130.939529,86.216507 133.953568,79.815178 
	C135.041824,77.503899 136.569122,75.399338 138.018707,72.821869 
	C138.306259,72.508904 138.471191,72.574524 138.844971,72.805519 
	C137.932816,77.844086 140.133453,81.493004 143.352875,84.804665 
	C145.385208,86.895226 145.262207,88.441048 143.312790,91.095871 
	C141.091095,94.121536 139.292755,98.324158 139.362061,101.976326 
	C139.486359,108.526817 135.702713,108.841179 131.123550,108.969124 
	C128.181641,109.051323 124.740730,108.388641 125.006271,113.575951 
z"/>
<path fill="#191919" opacity="1.000000" stroke="none" 
	d="
M87.581078,175.529663 
	C87.581108,176.115448 87.608932,176.287476 87.576927,176.447525 
	C86.963631,179.514496 89.780823,184.175781 83.310524,184.406250 
	C75.343567,184.690033 71.873901,182.896698 71.095100,176.765488 
	C70.503967,172.111679 70.174164,167.132507 74.723259,164.067551 
	C78.580460,161.468750 82.855453,161.120941 87.870430,164.072678 
	C83.304314,166.503143 76.936974,162.420624 74.983299,168.538315 
	C74.119652,171.242737 74.047806,174.510513 74.643478,177.303543 
	C75.761490,182.545731 79.907684,182.389709 84.405869,181.589951 
	C84.405869,179.769135 84.405869,178.035614 84.405869,176.099915 
	C83.026268,175.619171 81.591278,175.119125 79.891594,174.526855 
	C83.655670,171.903641 86.038803,172.184204 87.581078,175.529663 
z"/>
<path fill="#151515" opacity="1.000000" stroke="none" 
	d="
M106.820267,180.588806 
	C106.640358,181.816864 106.729073,182.920975 106.235214,183.342499 
	C103.865143,185.365356 94.892265,184.423126 92.664032,182.057205 
	C89.175484,178.353073 89.102318,169.178528 92.530563,165.321030 
	C95.932190,161.493515 101.863281,160.992264 105.819817,163.966919 
	C102.103378,165.191940 97.662216,165.741577 94.549271,168.068283 
	C92.996674,169.228745 93.402596,173.698120 93.752350,176.569702 
	C94.447334,182.275681 98.729942,182.372025 103.533859,181.727707 
	C103.533859,179.856506 103.533859,177.943832 103.533859,175.960403 
	C102.306404,175.542542 100.928116,175.073334 99.549835,174.604126 
	C99.604286,174.106186 99.658745,173.608246 99.713203,173.110306 
	C101.947174,173.011337 104.181152,172.912369 106.820419,172.795456 
	C106.820419,175.548080 106.820419,177.849167 106.820267,180.588806 
z"/>
<path fill="#131313" opacity="1.000000" stroke="none" 
	d="
M51.032227,178.087753 
	C49.465668,184.711517 41.007603,186.950012 35.721962,181.962753 
	C38.485489,181.962753 40.863380,182.295624 43.086823,181.852859 
	C44.736835,181.524307 46.186329,180.188751 47.725140,179.301758 
	C46.443413,177.867599 45.426918,175.704498 43.834225,175.124985 
	C36.791103,172.562271 35.335369,171.102768 36.712986,166.658569 
	C37.929527,162.733994 42.539577,161.133530 48.112503,162.727356 
	C48.798519,162.923569 49.445538,163.256165 50.110630,163.525558 
	C50.071148,163.998123 50.031666,164.470688 49.992184,164.943253 
	C48.094360,164.943253 46.109383,164.595840 44.323921,165.043732 
	C42.634598,165.467529 41.154701,166.726166 39.582691,167.617615 
	C40.881001,169.012985 41.941208,171.133530 43.526741,171.654114 
	C46.924168,172.769608 50.402180,173.303406 51.032227,178.087753 
z"/>
<path fill="#0C0C0C" opacity="1.000000" stroke="none" 
	d="
M68.988770,170.642456 
	C66.974449,176.629303 62.068859,175.785004 57.083172,176.186493 
	C57.083172,178.234573 57.213959,180.336014 57.008450,182.404022 
	C56.941334,183.079437 55.998566,183.667847 55.456264,184.296036 
	C54.930931,183.652390 53.960270,183.016357 53.949093,182.363907 
	C53.836185,175.773193 53.880268,169.179810 53.880268,162.651749 
	C65.332191,161.311493 68.693398,163.064804 68.988770,170.642456 
M57.061916,167.696365 
	C57.061916,169.466309 57.061916,171.236267 57.061916,174.583572 
	C60.672173,172.923569 63.344501,171.903549 65.669815,170.360596 
	C65.959427,170.168411 64.667603,165.994736 63.658558,165.779953 
	C61.625595,165.347198 59.282738,166.370224 57.061916,167.696365 
z"/>
<path fill="#585C47" opacity="1.000000" stroke="none" 
	d="
M109.204567,154.904968 
	C110.415710,154.885635 111.626862,154.866302 113.195465,154.832886 
	C113.640297,155.031891 113.727669,155.244995 113.840256,155.802460 
	C88.015724,156.146835 62.165974,156.146835 36.316227,156.146835 
	C36.272259,155.788071 36.228291,155.429291 36.184322,155.070526 
	C37.511578,154.845993 38.838833,154.621445 40.505791,154.225449 
	C52.190166,154.052048 63.534840,154.050125 75.425507,154.043121 
	C75.971489,154.038040 76.151833,154.073273 76.405838,154.388657 
	C87.508080,154.771027 98.356323,154.838013 109.204567,154.904968 
z"/>
<path fill="#EDBF61" opacity="1.000000" stroke="none" 
	d="
M178.056519,149.905029 
	C177.067337,150.120544 175.866089,150.239716 175.195038,149.699860 
	C173.692383,148.491028 172.453613,146.954208 171.107361,145.550964 
	C172.513596,144.451508 173.919846,143.352051 175.690048,142.295380 
	C176.731033,144.728622 177.408051,147.119110 178.056519,149.905029 
z"/>
<path fill="#FAFAF6" opacity="1.000000" stroke="none" 
	d="
M177.052704,124.642250 
	C177.256210,124.641495 177.459702,124.640747 177.861023,125.083725 
	C178.705383,126.684677 179.351929,127.841896 179.998474,128.999115 
	C179.998474,128.999115 180.007889,129.404709 180.006348,129.607544 
	C177.927826,129.590790 175.850830,129.371201 173.768402,128.731567 
	C173.830444,128.106705 173.897919,127.901863 174.403275,127.356537 
	C175.578339,126.224785 176.315521,125.433517 177.052704,124.642250 
z"/>
<path fill="#F8E2B1" opacity="1.000000" stroke="none" 
	d="
M180.000168,128.613739 
	C179.351929,127.841896 178.705383,126.684677 178.154434,125.167908 
	C178.250031,124.808365 178.487747,124.833275 178.596802,124.874664 
	C179.137848,126.020164 179.569855,127.124275 180.000168,128.613739 
z"/>
<path fill="#6D220B" opacity="1.000000" stroke="none" 
	d="
M87.931671,123.768852 
	C90.903999,128.607910 93.679848,133.582611 96.901558,138.249496 
	C100.424629,143.352890 104.359955,148.171692 107.680756,153.529221 
	C96.881218,153.987030 86.516525,154.030151 76.151833,154.073273 
	C76.151833,154.073273 75.971489,154.038040 75.880539,154.020325 
	C79.536751,144.191910 83.283905,134.381226 87.288200,124.192902 
	C87.545341,123.815285 87.931671,123.768852 87.931671,123.768852 
z"/>
<path fill="#FAF9F5" opacity="1.000000" stroke="none" 
	d="
M88.035767,123.443512 
	C87.931671,123.768852 87.545341,123.815285 87.352188,123.823685 
	C86.592590,123.033562 86.104202,122.163376 85.447334,121.447861 
	C80.220795,115.754753 80.932610,107.070404 87.339432,102.602165 
	C88.907303,101.508713 91.333122,101.645447 93.783035,101.120789 
	C94.703262,101.219620 95.204964,101.414253 95.921013,101.778580 
	C95.219002,105.112114 94.502823,108.352036 93.336449,111.420860 
	C91.822220,115.404915 92.195152,120.261551 88.035767,123.443512 
z"/>
<path fill="#F7F7F7" opacity="1.000000" stroke="none" 
	d="
M153.769379,155.926346 
	C155.115158,155.889755 156.116882,155.953171 157.486786,155.939789 
	C164.068832,160.790726 171.528320,162.685226 178.934692,164.862213 
	C180.214157,165.238266 181.492264,167.825226 181.517960,169.411240 
	C181.532745,170.324188 179.034561,172.073074 177.664398,172.076202 
	C171.579773,172.090118 165.494019,171.608856 158.827072,171.277786 
	C158.231796,173.495651 157.470673,176.331467 156.470932,180.056290 
	C153.159515,173.979721 150.144440,168.446945 147.124619,162.905457 
	C149.244858,160.590591 151.335098,158.308472 153.769379,155.926346 
z"/>
<path fill="#B9394A" opacity="1.000000" stroke="none" 
	d="
M135.518372,143.038025 
	C137.481873,145.242538 140.085968,147.227036 140.292267,149.435501 
	C140.433609,150.948654 137.509079,153.504059 135.461533,154.264389 
	C133.175308,155.113327 130.330917,154.459091 127.445923,154.459091 
	C127.445923,150.292618 127.445923,146.395050 127.445923,141.567520 
	C130.202789,142.049988 132.669815,142.481720 135.518372,143.038025 
z"/>
<path fill="#FAF3F0" opacity="1.000000" stroke="none" 
	d="
M127.564423,130.114960 
	C126.077736,127.868652 124.397972,125.833466 123.658958,123.500290 
	C123.156792,121.914902 123.973404,119.911797 124.533035,118.050842 
	C128.581528,121.012169 128.958359,125.224258 129.016968,129.933777 
	C128.590607,130.281326 128.181335,130.240234 127.564423,130.114960 
z"/>
<path fill="#F8E2B1" opacity="1.000000" stroke="none" 
	d="
M177.118408,124.352028 
	C176.315521,125.433517 175.578339,126.224785 174.460693,127.038170 
	C174.358414,125.718163 174.636612,124.376038 174.914795,123.033905 
	C175.671234,123.376541 176.427673,123.719170 177.118408,124.352028 
z"/>
<path fill="#411300" opacity="1.000000" stroke="none" 
	d="
M76.405838,154.388657 
	C86.516525,154.030151 96.881218,153.987030 107.731583,153.884216 
	C108.477135,154.031509 108.737022,154.238464 109.100739,154.675201 
	C98.356323,154.838013 87.508080,154.771027 76.405838,154.388657 
z"/>
<path fill="#F2F2F2" opacity="1.000000" stroke="none" 
	d="
M57.064819,167.244507 
	C59.282738,166.370224 61.625595,165.347198 63.658558,165.779953 
	C64.667603,165.994736 65.959427,170.168411 65.669815,170.360596 
	C63.344501,171.903549 60.672173,172.923569 57.061916,174.583572 
	C57.061916,171.236267 57.061916,169.466309 57.064819,167.244507 
z"/>
</svg>